%TF.GenerationSoftware,KiCad,Pcbnew,8.0.3*%
%TF.CreationDate,2025-04-30T21:06:06+02:00*%
%TF.ProjectId,complicated_concave_polygon_1,53505261-6369-46e6-9752-584e312d5265,rev?*%
%TF.SameCoordinates,Original*%
%TF.FileFunction,Copper,L4,Bot*%
%TF.FilePolarity,Positive*%
%FSLAX46Y46*%
G04 Gerber Fmt 4.6, Leading zero omitted, Abs format (unit mm)*
G04 Created by KiCad (PCBNEW 8.0.3) date 2025-04-30 21:06:06*
%MOMM*%
%LPD*%
G01*
%TD.AperFunction*%
%TA.AperFunction,Conductor*%
G36*
X154594817Y-109879074D02*
G01*
X154616560Y-109888081D01*
X154625566Y-109909825D01*
X154625563Y-110013323D01*
X154625563Y-110013325D01*
X154635975Y-110065682D01*
X154631383Y-110088765D01*
X154619776Y-110099078D01*
X154527641Y-110146022D01*
X154527637Y-110146025D01*
X154443525Y-110230137D01*
X154389524Y-110336121D01*
X154370919Y-110453597D01*
X154370919Y-110453602D01*
X154389524Y-110571078D01*
X154433155Y-110656710D01*
X154443527Y-110677065D01*
X154467569Y-110701107D01*
X154476575Y-110722850D01*
X154467569Y-110744594D01*
X154445825Y-110753600D01*
X152623112Y-110753600D01*
X152601368Y-110744594D01*
X152592362Y-110722850D01*
X152601368Y-110701106D01*
X152604158Y-110698316D01*
X152645774Y-110656700D01*
X152729694Y-110514799D01*
X152775689Y-110356485D01*
X152778600Y-110319496D01*
X152778600Y-110187704D01*
X152778599Y-110187701D01*
X152778599Y-110187687D01*
X152775690Y-110150727D01*
X152775689Y-110150715D01*
X152763403Y-110108427D01*
X152765985Y-110085036D01*
X152784353Y-110070321D01*
X152792932Y-110069100D01*
X153939345Y-110069100D01*
X154013229Y-110049303D01*
X154075458Y-110013375D01*
X154079468Y-110011060D01*
X154079468Y-110011059D01*
X154079471Y-110011058D01*
X154202459Y-109888068D01*
X154224201Y-109879062D01*
X154594817Y-109879074D01*
G37*
%TD.AperFunction*%
%TA.AperFunction,Conductor*%
M02*
