%TF.GenerationSoftware,Novarm,DipTrace,4.3.0.6*%
%TF.CreationDate,2025-04-25T22:45:34+00:00*%
%FSLAX35Y35*%
%MOMM*%
%TF.FileFunction,Paste,Top*%
%TF.Part,Single*%
%AMOUTLINE2*
4,1,5,
-0.33588,0.19445,
-0.24445,0.28588,
-0.14445,0.28588,
0.33588,-0.19445,
0.19445,-0.33588,
-0.33588,0.19445,
0*%
%AMOUTLINE5*
4,1,4,
-0.19445,-0.33588,
-0.33588,-0.19445,
0.19445,0.33588,
0.33588,0.19445,
-0.19445,-0.33588,
0*%
%AMOUTLINE8*
4,1,4,
-0.33588,0.19445,
-0.19445,0.33588,
0.33588,-0.19445,
0.19445,-0.33588,
-0.33588,0.19445,
0*%
%AMOUTLINE14*
4,1,5,
-0.19445,0.33588,
-0.33588,0.19445,
0.14445,-0.28588,
0.24445,-0.28588,
0.33588,-0.19445,
-0.19445,0.33588,
0*%
%AMOUTLINE17*
4,1,5,
0.33588,0.19445,
0.24445,0.28588,
0.14445,0.28588,
-0.33588,-0.19445,
-0.19445,-0.33588,
0.33588,0.19445,
0*%
%AMOUTLINE20*
4,1,5,
-0.33588,-0.19445,
-0.24445,-0.28588,
-0.14445,-0.28588,
0.33588,0.19445,
0.19445,0.33588,
-0.33588,-0.19445,
0*%
%AMOUTLINE23*
4,1,5,
0.33588,-0.19445,
0.19445,-0.33588,
-0.28588,0.14445,
-0.28588,0.24445,
-0.19445,0.33588,
0.33588,-0.19445,
0*%
%AMOUTLINE26*
4,1,5,
-0.33588,0.19445,
-0.19445,0.33588,
0.28588,-0.14445,
0.28588,-0.24445,
0.19445,-0.33588,
-0.33588,0.19445,
0*%
%AMOUTLINE29*
4,1,5,
0.19445,0.33588,
0.28588,0.24445,
0.28588,0.14445,
-0.19445,-0.33588,
-0.33588,-0.19445,
0.19445,0.33588,
0*%
%AMOUTLINE32*
4,1,5,
-0.19445,-0.33588,
-0.28588,-0.24445,
-0.28588,-0.14445,
0.19445,0.33588,
0.33588,0.19445,
-0.19445,-0.33588,
0*%
%ADD19OUTLINE2*%
%ADD22OUTLINE5*%
%ADD25OUTLINE8*%
%ADD31OUTLINE14*%
%ADD34OUTLINE17*%
%ADD37OUTLINE20*%
%ADD40OUTLINE23*%
%ADD43OUTLINE26*%
%ADD46OUTLINE29*%
%ADD49OUTLINE32*%
G75*
G01*
%LPD*%
D19*
X557023Y270645D3*
D22*
X129224Y235290D3*
X164579Y199934D3*
X199934Y164579D3*
X235290Y129224D3*
D25*
X415602D3*
X450957Y164579D3*
X486313Y199934D3*
X521668Y235290D3*
D22*
Y415602D3*
X486313Y450957D3*
X450957Y486313D3*
X415602Y521668D3*
D25*
X235290D3*
X199934Y486313D3*
X164579Y450957D3*
X129224Y415602D3*
G36*
X229916Y405278D2*
X309748Y325446D1*
X229916Y245614D1*
X150083Y325446D1*
X229916Y405278D1*
G37*
G36*
X325446Y309748D2*
X405278Y229916D1*
X325446Y150083D1*
X245614Y229916D1*
X325446Y309748D1*
G37*
G36*
Y500808D2*
X405278Y420976D1*
X325446Y341144D1*
X245614Y420976D1*
X325446Y500808D1*
G37*
G36*
X420976Y405278D2*
X500808Y325446D1*
X420976Y245614D1*
X341144Y325446D1*
X420976Y405278D1*
G37*
D31*
X93868Y380247D3*
D34*
Y270645D3*
D37*
X557023Y380247D3*
D40*
X380247Y93868D3*
D43*
X270645Y557023D3*
D46*
Y93868D3*
D49*
X380247Y557023D3*
M02*
